<svg xmlns="http://www.w3.org/2000/svg" viewBox="0 0 1200 900" role="img" aria-labelledby="t d"><title id="t">Orange Bros abstract music marketing visual</title><desc id="d">Dark premium abstract graphic with orange signal rings, sound waves and campaign nodes.</desc><defs><radialGradient id="g" cx="50%" cy="50%" r="55%"><stop offset="0" stop-color="#ff9f0a" stop-opacity=".95"/><stop offset=".38" stop-color="#ff9f0a" stop-opacity=".22"/><stop offset="1" stop-color="#050505" stop-opacity="0"/></radialGradient><linearGradient id="l" x1="0" x2="1"><stop offset="0" stop-color="#fff" stop-opacity=".9"/><stop offset="1" stop-color="#ff9f0a" stop-opacity=".8"/></linearGradient><filter id="blur"><feGaussianBlur stdDeviation="18"/></filter></defs><rect width="1200" height="900" fill="#050505"/><circle cx="620" cy="455" r="360" fill="url(#g)"/><circle cx="620" cy="455" r="224" fill="none" stroke="#ff9f0a" stroke-opacity=".38" stroke-width="2"/><circle cx="620" cy="455" r="310" fill="none" stroke="#fff" stroke-opacity=".09" stroke-width="1"/><path d="M140 520 C 250 385, 350 610, 465 455 S 725 285, 840 455 S 1015 588, 1080 430" fill="none" stroke="url(#l)" stroke-width="10" stroke-linecap="round" opacity=".9"/><path d="M170 605 C 310 490, 420 640, 560 535 S 760 420, 920 540" fill="none" stroke="#fff" stroke-width="2" stroke-opacity=".34" stroke-linecap="round"/><g fill="#ff9f0a"><circle cx="205" cy="512" r="13"/><circle cx="465" cy="455" r="12"/><circle cx="840" cy="455" r="14"/><circle cx="1080" cy="430" r="10"/></g><g fill="#fff" opacity=".88"><circle cx="320" cy="452" r="5"/><circle cx="570" cy="642" r="4"/><circle cx="735" cy="294" r="6"/><circle cx="960" cy="612" r="5"/></g><rect x="440" y="270" width="360" height="360" rx="80" fill="#0d0d0f" stroke="#ffffff" stroke-opacity=".12"/><circle cx="620" cy="450" r="106" fill="#ff9f0a"/><path d="M548 406l36 36m0-36l-36 36M660 406l36 36m0-36l-36 36" stroke="#050505" stroke-width="16" stroke-linecap="round"/><path d="M540 498c35 78 126 90 172 6" fill="none" stroke="#050505" stroke-width="14" stroke-linecap="round"/><text x="620" y="715" text-anchor="middle" font-family="Inter, Arial" font-size="30" fill="#fff" opacity=".62">strategy • paid media • real audiences</text></svg>