<?xml version="1.0" encoding="UTF-8"?>
<svg id="Capa_1" xmlns="http://www.w3.org/2000/svg" version="1.1" viewBox="0 0 316 133.45">
  <!-- Generator: Adobe Illustrator 30.2.1, SVG Export Plug-In . SVG Version: 2.1.1 Build 1)  -->
  <defs>
    <style>
      .st0 {
        fill: orange;
      }

      .st1 {
        fill: #fff;
      }
    </style>
  </defs>
  <path class="st0" d="M241.92,77.85c-2.14-4.81-5.12-9.01-8.95-12.58-3.83-3.58-8.35-6.35-13.56-8.3-5.21-1.95-10.93-2.92-17.14-2.92s-11.85.97-17.09,2.92c-5.25,1.95-9.78,4.72-13.62,8.3-3.83,3.58-6.82,7.77-8.95,12.58-2.13,4.81-3.2,10.1-3.2,15.89s1.06,10.99,3.2,15.84c2.13,4.84,5.12,9.06,8.95,12.64,3.83,3.58,8.37,6.34,13.62,8.3,5.24,1.95,10.94,2.93,17.09,2.93s11.93-.97,17.14-2.93c5.21-1.95,9.72-4.72,13.56-8.3,3.83-3.58,6.81-7.79,8.95-12.64,2.13-4.84,3.2-10.13,3.2-15.84s-1.06-11.08-3.2-15.89ZM203.91,68.09c.84-.92,2.29-.79,3.15,0,1.56,1.43,2.82,3.16,4.04,4.88.26.37.52.74.78,1.11,1.96-2.36,4.09-4.58,6.36-6.65.93-.84,2.23-.85,3.15,0,.86.79.86,2.37,0,3.15-2.37,2.15-4.58,4.47-6.6,6.95.25.24.5.46.77.68,0,0,0,0,0,0s0,0,.01,0h0s0,0,0,0c.1.07.4.3.44.33.17.12.34.23.51.35.86.57,1.76,1.09,2.65,1.6,1.91,1.09,3.78,2.19,5.45,3.63.94.81.77,2.32,0,3.15-.86.93-2.27.76-3.15,0-.04-.03-.35-.29-.43-.36h0s0,0-.01,0h0c-.19-.14-.38-.28-.57-.42-.39-.28-.8-.53-1.21-.79-.88-.54-1.79-1.05-2.69-1.56-1.57-.9-3.12-1.87-4.49-3.05-.26.38-.51.75-.77,1.13-.97,1.46-1.88,2.96-2.73,4.5-.6,1.09-2,1.35-3.04.8-1.08-.57-1.37-2.02-.8-3.04,1.29-2.34,2.73-4.59,4.29-6.76-.54-.72-1.06-1.45-1.57-2.18-.27-.38-.53-.76-.81-1.14-.15-.22-.31-.44-.48-.65-.04-.06-.09-.12-.14-.18,0,0-.05-.06-.12-.15-.63-.77-1.29-1.51-2.02-2.19-.92-.84-.79-2.29,0-3.15ZM175.4,74.22c-.85-.91-.84-2.23,0-3.15.8-.87,2.36-.86,3.15,0,1.55,1.66,3.07,3.34,4.58,5.03,1.04-1.29,2.12-2.54,3.26-3.75,1.54-1.64,3.19-3.39,5.28-4.33,1.14-.51,2.34-.3,3.05.8.6.94.27,2.56-.8,3.05-.51.23-.97.51-1.44.82-.05.03-.09.06-.11.08-.04.03-.05.04-.05.04-.07.05-.14.11-.2.17-.16.13-.32.27-.47.42-.79.71-1.52,1.48-2.24,2.26-.74.79-1.45,1.59-2.14,2.41-.33.38-.64.77-.96,1.16-.07.08-.14.17-.2.26,3.67,4.28,7.21,8.66,10.62,13.15.75.99.11,2.46-.8,3.05-1.09.7-2.34.12-3.04-.8-1.29-1.69-2.58-3.35-4.05-5.18-1.42-1.77-2.86-3.52-4.31-5.25-.37-.43-.73-.86-1.1-1.29-1.72,2.53-3.25,5.18-4.6,7.93-.54,1.11-2.04,1.33-3.04.8-1.12-.59-1.31-2-.8-3.04,1.56-3.19,3.38-6.24,5.43-9.13-1.63-1.86-3.3-3.69-4.99-5.5ZM232.84,97.12c-1.38,5.59-4.82,10.45-9.01,14.31-1.9,1.75-3.96,3.33-6.1,4.77-2.34,1.57-4.78,3-7.43,3.99-5.35,2-11.4,1.14-16.69-.7-9.21-3.2-17.12-9.98-20.55-19.23-.43-1.17.49-2.39,1.56-2.74,1.21-.39,2.34.47,2.74,1.55.11.31.23.61.36.92-.01-.03-.03-.07-.04-.1.02.04.03.08.05.11,0,0,.01.02.01.04,0,0,0,.01,0,.02,0,.01,0,.02,0,.02,0,.01.02.03.02.05.05.11.1.22.15.33.26.57.55,1.13.86,1.69.58,1.05,1.23,2.05,1.94,3.02.02.03.08.1.12.16-.01-.01-.02-.03-.04-.04.02.02.04.05.06.07s.03.04.04.06c0,0,.01.01.02.02,0,0,0,0,0,0h0s.06.08.09.12c.19.23.38.47.57.69.39.46.8.9,1.21,1.33.84.87,1.73,1.68,2.66,2.45.14.11.28.22.42.34h0s.01.01.02.02c0,0,.01,0,.02.02h0s.02.01.03.02c0,0,.01,0,.02,0h0s.01.02.02.03c0,0,0,0,0,0h0c.18.14.37.28.56.41.39.28.79.56,1.2.83.92.6,1.86,1.15,2.83,1.66.54.28,1.08.55,1.64.81.22.1.44.2.66.3.01,0,.02,0,.04.01,0,0,.01,0,.02,0,0,0,.01,0,.02.01,0,0,.01,0,.02,0s.01,0,.02,0c0,0,0,0,.01,0,0,0,.02,0,.03.01.07.02.15.06.22.09,1.01.4,2.05.76,3.1,1.06,1.06.31,2.13.57,3.21.77.39.07.79.14,1.18.2.03,0,.06,0,.08.01h-.03s.03,0,.05,0h.02s.07,0,.12.01c.16.01.32.03.48.05.67.07,1.35.11,2.03.12.73,0,1.46-.02,2.19-.11,0,0,.01,0,.02,0,.01,0,.03,0,.05,0,.03,0,.07-.01.12-.02.15-.02.3-.05.45-.08.32-.06.64-.14.95-.22.66-.17,1.32-.39,1.95-.64.09-.03.18-.07.27-.1h0s0,0,0,0c0,0,0,0,0,0,.01,0,.03,0,.04-.02h0s.11-.05.13-.06c.3-.14.59-.27.89-.42,2.22-1.09,4.32-2.46,6.32-3.91.29-.21.57-.42.86-.63.02-.01.06-.05.1-.07,0,0,0,.01,0,.01.01-.01.02-.02.03-.03,0,0,0,0,0,0h.01s0-.02.01-.02c.05-.04.1-.08.16-.12.43-.34.86-.69,1.28-1.04.91-.78,1.79-1.59,2.62-2.44.81-.82,1.56-1.69,2.3-2.58,0,0,0-.01.02-.02,0,0,0,0,.02-.02h0s.01-.03.01-.03c.09-.13.19-.26.29-.38.15-.21.3-.41.44-.62.33-.47.63-.95.93-1.43.29-.48.57-.98.83-1.48.13-.25.25-.5.37-.76.03-.06.19-.42.24-.53,0,0,0-.02,0-.02h0c.42-1.02.75-2.05,1-3.11.3-1.21,1.59-1.82,2.74-1.55,1.19.27,1.83,1.61,1.55,2.74Z"/>
  <g>
    <path class="st1" d="M27.24,50.49c-3.91,0-7.53-.62-10.86-1.86-3.33-1.24-6.22-3-8.66-5.28-2.44-2.28-4.33-4.95-5.69-8.03-1.36-3.08-2.03-6.44-2.03-10.07s.68-7.05,2.03-10.1c1.36-3.06,3.25-5.72,5.69-8,2.44-2.28,5.32-4.03,8.66-5.28C19.71.63,23.33,0,27.24,0s7.59.62,10.9,1.86,6.18,3,8.62,5.28c2.44,2.28,4.33,4.94,5.69,8,1.36,3.06,2.03,6.43,2.03,10.1s-.68,6.99-2.03,10.07c-1.36,3.08-3.25,5.76-5.69,8.03-2.44,2.28-5.31,4.03-8.62,5.28-3.31,1.24-6.94,1.86-10.9,1.86ZM27.24,37.31c1.52,0,2.93-.28,4.24-.83,1.31-.55,2.46-1.35,3.45-2.38.99-1.04,1.76-2.3,2.31-3.79.55-1.49.83-3.18.83-5.07s-.28-3.57-.83-5.07c-.55-1.49-1.32-2.76-2.31-3.79-.99-1.03-2.14-1.83-3.45-2.38s-2.72-.83-4.24-.83-2.93.28-4.24.83-2.46,1.35-3.45,2.38c-.99,1.03-1.76,2.3-2.31,3.79-.55,1.49-.83,3.18-.83,5.07s.28,3.58.83,5.07c.55,1.49,1.32,2.76,2.31,3.79.99,1.03,2.14,1.83,3.45,2.38,1.31.55,2.72.83,4.24.83Z"/>
    <path class="st1" d="M106.6,49.26l-.05.13h.14l-.09-.13Z"/>
    <path class="st1" d="M96.56,34.53c2.7-1.37,4.85-3.25,6.41-5.6,1.79-2.69,2.69-5.9,2.69-9.62,0-5.61-1.94-10.05-5.79-13.31-3.86-3.27-9.5-4.89-16.9-4.89h-22.55v48.28h16.27v-12.14h4.43l8.19,12.14h17.24l.05-.13-10.05-14.72ZM76.69,13.66h5.94c2.24,0,3.91.51,4.99,1.52,1.09,1.01,1.63,2.4,1.63,4.15s-.54,3.12-1.63,4.13c-1.08,1.01-2.75,1.52-4.99,1.52h-5.94v-11.31Z"/>
    <path class="st1" d="M106.6,49.26l-.05.13h.14l-.09-.13Z"/>
    <path class="st1" d="M143.66,1.11h-16l-21.05,48.15.09.13h16.42l3.23-8.42h18.36l3.23,8.42h16.82L143.66,1.11ZM130.85,29.25l4.67-12.16,4.67,12.16h-9.35Z"/>
    <polygon class="st1" points="214.97 1.11 214.97 49.39 201.59 49.39 183.24 27.42 183.24 49.39 167.38 49.39 167.38 1.11 180.76 1.11 199.1 23.06 199.1 1.11 214.97 1.11"/>
    <path class="st1" d="M254.76,23.94h14.14v20.42c-2.95,1.98-6.3,3.5-10.07,4.55-3.77,1.06-7.42,1.58-10.96,1.58-3.91,0-7.51-.6-10.8-1.83s-6.14-2.96-8.55-5.21c-2.41-2.25-4.29-4.91-5.62-7.99-1.33-3.09-2-6.49-2-10.21s.67-7.12,2-10.2c1.33-3.08,3.22-5.75,5.65-8,2.44-2.25,5.32-3.99,8.66-5.2,3.33-1.22,6.99-1.84,10.99-1.84,4.78,0,9.05.81,12.8,2.42,3.74,1.61,6.84,3.9,9.27,6.89l-10.41,9.17c-1.52-1.74-3.16-3.07-4.93-3.96-1.77-.9-3.74-1.35-5.9-1.35-1.79,0-3.41.29-4.86.84-1.45.55-2.67,1.35-3.68,2.41-1.01,1.07-1.79,2.33-2.35,3.79-.55,1.47-.82,3.16-.82,5.04s.27,3.44.82,4.94c.56,1.5,1.34,2.77,2.35,3.83,1.01,1.06,2.21,1.87,3.62,2.44,1.4.58,2.98.87,4.73.87,1.84,0,3.63-.31,5.38-.93.19-.07.36-.13.55-.21v-12.24Z"/>
    <polygon class="st1" points="316 37.11 316 49.39 275.87 49.39 275.87 1.11 315.11 1.11 315.11 13.38 291.87 13.38 291.87 19.04 312.28 19.04 312.28 30.76 291.87 30.76 291.87 37.11 316 37.11"/>
  </g>
  <g>
    <path class="st1" d="M70.36,99.36c-2.32-3.1-5.61-5.47-9.85-7.11-.18-.07-.36-.14-.54-.19,3.04-1.59,5.44-3.61,7.18-6.07,2.1-2.96,3.15-6.34,3.15-10.12,0-5.71-2.45-10.39-7.38-14.07-4.92-3.67-12.55-5.5-22.89-5.5H0v74.9h42.16c10.34,0,18.21-1.82,23.59-5.46,5.39-3.64,8.08-8.7,8.08-15.19,0-4.36-1.16-8.08-3.48-11.19ZM24.83,73.94h11.76c2.86,0,4.94.47,6.27,1.4,1.32.92,1.97,2.32,1.97,4.18s-.65,3.15-1.97,4.12c-1.33.96-3.41,1.44-6.27,1.44h-11.76v-11.13ZM46.28,112.04c-1.4,1-3.48,1.5-6.26,1.5h-15.19v-11.77h15.19c2.78,0,4.86.51,6.26,1.5,1.38,1,2.08,2.47,2.08,4.39s-.7,3.39-2.08,4.39Z"/>
    <path class="st1" d="M138.8,108.16c4.2-2.15,7.51-5.04,9.94-8.69,2.79-4.18,4.18-9.15,4.18-14.92,0-8.71-2.99-15.59-8.99-20.65-5.99-5.06-14.72-7.6-26.21-7.6h-34.99v74.9h25.26v-18.84h6.88l12.71,18.84h26.97l-15.72-23.04ZM124.93,90.96c-1.68,1.56-4.27,2.35-7.75,2.35h-9.21v-17.55h9.21c3.49,0,6.08.79,7.75,2.35,1.68,1.58,2.51,3.71,2.51,6.43s-.83,4.85-2.51,6.42Z"/>
    <path class="st1" d="M281.11,132.91c-6.28,0-12.34-.71-18.19-2.14-5.85-1.43-10.67-3.28-14.45-5.57l8.13-18.41c3.57,2.07,7.54,3.73,11.93,4.98,4.39,1.25,8.65,1.87,12.79,1.87,2.42,0,4.33-.16,5.73-.48s2.41-.78,3.05-1.39c.64-.61.96-1.34.96-2.19,0-1.35-.75-2.42-2.25-3.21-1.5-.78-3.48-1.44-5.94-1.98s-5.16-1.11-8.08-1.71c-2.93-.6-5.87-1.41-8.83-2.41-2.96-1-5.67-2.32-8.13-3.96-2.46-1.64-4.44-3.8-5.94-6.47s-2.25-6.01-2.25-10.01c0-4.64,1.3-8.86,3.91-12.68,2.6-3.82,6.49-6.87,11.66-9.15,5.17-2.28,11.61-3.42,19.32-3.42,5.06,0,10.06.54,14.98,1.6,4.92,1.07,9.35,2.71,13.27,4.92l-7.6,18.3c-3.71-1.85-7.3-3.25-10.75-4.17-3.46-.93-6.83-1.39-10.11-1.39-2.43,0-4.35.21-5.78.64-1.43.43-2.44,1-3.05,1.71-.61.71-.91,1.5-.91,2.35,0,1.28.75,2.3,2.25,3.05,1.5.75,3.48,1.37,5.94,1.87,2.46.5,5.17,1.03,8.13,1.6,2.96.57,5.9,1.36,8.83,2.35,2.92,1,5.62,2.32,8.08,3.96,2.46,1.64,4.44,3.78,5.94,6.42,1.5,2.64,2.25,5.92,2.25,9.85,0,4.57-1.3,8.76-3.91,12.57-2.61,3.82-6.47,6.89-11.61,9.2-5.14,2.32-11.59,3.48-19.37,3.48Z"/>
  </g>
</svg>