<svg width="1200" height="900" viewBox="0 0 1200 900" fill="none" xmlns="http://www.w3.org/2000/svg">
<rect width="1200" height="900" rx="64" fill="#070707"/><rect x="70" y="70" width="1060" height="760" rx="44" fill="url(#g1)" stroke="rgba(255,255,255,.14)"/><circle cx="955" cy="180" r="190" fill="#FF9F0A" opacity=".18"/><circle cx="260" cy="695" r="210" fill="#FF6A00" opacity=".13"/><rect x="130" y="135" width="300" height="36" rx="18" fill="white" opacity=".92"/><rect x="130" y="195" width="470" height="18" rx="9" fill="white" opacity=".28"/><rect x="130" y="230" width="390" height="18" rx="9" fill="white" opacity=".18"/><rect x="130" y="318" width="255" height="170" rx="28" fill="rgba(255,255,255,.07)" stroke="rgba(255,255,255,.14)"/><rect x="420" y="318" width="255" height="170" rx="28" fill="rgba(255,255,255,.07)" stroke="rgba(255,255,255,.14)"/><rect x="710" y="318" width="360" height="170" rx="28" fill="rgba(255,159,10,.12)" stroke="rgba(255,159,10,.34)"/><rect x="160" y="538" width="910" height="210" rx="32" fill="rgba(255,255,255,.055)" stroke="rgba(255,255,255,.13)"/><path d="M210 685 C300 590 405 700 500 620 C600 535 700 660 820 570 C910 505 970 545 1030 500" stroke="#FF9F0A" stroke-width="16" stroke-linecap="round"/><path d="M210 704 C315 635 430 725 520 665 C620 600 725 712 840 640 C925 587 980 610 1030 585" stroke="white" stroke-opacity=".25" stroke-width="10" stroke-linecap="round"/><circle cx="830" cy="570" r="18" fill="#FF9F0A"/><rect x="160" y="365" width="120" height="26" rx="13" fill="white" opacity=".35"/><rect x="160" y="410" width="170" height="42" rx="21" fill="#FF9F0A"/><rect x="450" y="365" width="140" height="26" rx="13" fill="white" opacity=".35"/><rect x="450" y="410" width="160" height="42" rx="21" fill="white" opacity=".82"/><rect x="750" y="365" width="210" height="26" rx="13" fill="white" opacity=".35"/><rect x="750" y="410" width="250" height="42" rx="21" fill="#FF9F0A"/><defs><linearGradient id="g1" x1="70" y1="70" x2="1130" y2="830" gradientUnits="userSpaceOnUse"><stop stop-color="#161616"/><stop offset="1" stop-color="#090909"/></linearGradient></defs></svg>