<svg width="1200" height="900" viewBox="0 0 1200 900" fill="none" xmlns="http://www.w3.org/2000/svg">
<rect width="1200" height="900" rx="64" fill="#070707"/><rect x="80" y="80" width="1040" height="740" rx="54" fill="#0D0D0F" stroke="rgba(255,255,255,.14)"/><circle cx="600" cy="450" r="310" fill="url(#rad)" opacity=".9"/><path d="M245 650C347 509 427 585 520 462C617 333 705 338 797 423C879 499 931 480 1001 356" stroke="#FF9F0A" stroke-width="26" stroke-linecap="round" opacity=".95"/><path d="M310 270H890" stroke="white" stroke-opacity=".15" stroke-width="2"/><path d="M310 630H890" stroke="white" stroke-opacity=".15" stroke-width="2"/><path d="M375 205V695" stroke="white" stroke-opacity=".11" stroke-width="2"/><path d="M825 205V695" stroke="white" stroke-opacity=".11" stroke-width="2"/><circle cx="600" cy="452" r="128" fill="#FF9F0A"/><path d="M545 430L592 476L671 384" stroke="#070707" stroke-width="25" stroke-linecap="round" stroke-linejoin="round"/><rect x="185" y="170" width="270" height="92" rx="46" fill="rgba(255,255,255,.07)" stroke="rgba(255,255,255,.14)"/><rect x="735" y="638" width="280" height="92" rx="46" fill="rgba(255,159,10,.12)" stroke="rgba(255,159,10,.35)"/><circle cx="225" cy="216" r="16" fill="#FF9F0A"/><circle cx="775" cy="684" r="16" fill="white" opacity=".86"/><defs><radialGradient id="rad" cx="0" cy="0" r="1" gradientUnits="userSpaceOnUse" gradientTransform="translate(600 450) rotate(90) scale(310)"><stop stop-color="#FF9F0A" stop-opacity=".34"/><stop offset=".58" stop-color="#FF6A00" stop-opacity=".14"/><stop offset="1" stop-color="#0D0D0F" stop-opacity="0"/></radialGradient></defs></svg>